<svg xmlns="http://www.w3.org/2000/svg" xmlns:xlink="http://www.w3.org/1999/xlink" width="500" zoomAndPan="magnify" viewBox="0 0 375 92.999996" height="124" preserveAspectRatio="xMidYMid meet" version="1.0"><defs><g/><clipPath id="id1"><path d="M 291 20.558594 L 351 20.558594 L 351 57 L 291 57 Z M 291 20.558594 " clip-rule="nonzero"/></clipPath><clipPath id="id2"><path d="M 302 45 L 363 45 L 363 72.308594 L 302 72.308594 Z M 302 45 " clip-rule="nonzero"/></clipPath></defs><g clip-path="url(#id1)"><path fill="#bbcdc7" d="M 308.597656 52.039062 L 315.816406 56.210938 C 318.820312 56.796875 321.976562 54.667969 324.183594 52.808594 C 329.253906 47.601562 335.359375 43.300781 342.554688 41.945312 L 318.898438 28.261719 C 321.128906 27.308594 323.597656 26.800781 326.171875 26.800781 C 335.226562 26.800781 342.792969 33.230469 344.546875 41.757812 C 346.617188 41.464844 348.609375 41.414062 350.707031 41.679688 C 348.847656 29.804688 338.574219 20.691406 326.171875 20.691406 C 321.207031 20.691406 316.589844 22.152344 312.683594 24.675781 L 306.285156 20.984375 C 304.667969 20.054688 302.59375 20.613281 301.667969 22.234375 L 292.1875 38.652344 C 291.257812 40.269531 291.816406 42.34375 293.433594 43.273438 L 296.488281 45.054688 L 296.460938 45 L 308.542969 52.066406 L 308.542969 52.039062 Z M 310.136719 35.835938 C 311.066406 37.828125 317.730469 36.683594 317.730469 41.386719 C 317.730469 43.882812 315.925781 45.265625 313.535156 45.503906 L 313.535156 48.027344 L 311.25 48.027344 L 311.25 45.398438 C 309.683594 45.105469 308.304688 44.441406 307.054688 43.328125 L 308.515625 41.597656 C 309.179688 42.183594 309.871094 42.609375 310.5625 42.929688 C 312.179688 43.644531 315.339844 43.726562 315.339844 41.625 C 315.339844 38.492188 307.613281 40.695312 307.613281 35.355469 C 307.613281 33.179688 309.179688 31.742188 311.277344 31.398438 L 311.277344 28.820312 L 313.5625 28.820312 L 313.5625 31.398438 C 314.96875 31.585938 316.191406 32.167969 317.304688 33.046875 L 316.003906 34.878906 C 315.367188 34.425781 314.757812 34.054688 314.117188 33.816406 C 312.394531 33.125 310.003906 33.363281 310.003906 35.117188 C 310.003906 35.382812 310.054688 35.621094 310.136719 35.835938 Z M 310.136719 35.835938 " fill-opacity="1" fill-rule="evenodd"/></g><g clip-path="url(#id2)"><path fill="#bbcdc7" d="M 344.945312 45.160156 C 338.625 45.851562 332.519531 49.277344 326.597656 55.414062 C 321.554688 59.664062 317.066406 60.859375 313.109375 59.027344 C 312.234375 58.628906 311.410156 58.070312 310.585938 57.351562 L 302.355469 52.519531 C 302.835938 54.191406 303.5 55.8125 304.320312 57.300781 C 308.675781 64.605469 317.4375 68.589844 326.066406 66.519531 C 334.351562 64.234375 341.070312 60.300781 346.273438 54.75 C 341.730469 63.089844 332.597656 67.925781 318.871094 69.308594 C 318.953125 69.308594 326.464844 74.328125 336.394531 71.40625 C 342.289062 69.679688 347.203125 65.613281 349.988281 60.140625 C 352.804688 55.414062 357.105469 51.746094 362.203125 49.703125 C 356.734375 46.300781 350.945312 44.46875 344.945312 45.132812 Z M 344.945312 45.160156 " fill-opacity="1" fill-rule="evenodd"/></g><g fill="#bbcdc7" fill-opacity="1"><g transform="translate(14.218787, 61.499994)"><g><path d="M 19.859375 0 L 19.859375 -3.214844 L 6.621094 -3.214844 L 6.621094 -29.539062 L 3.058594 -29.539062 L 3.058594 0 Z M 19.859375 0 "/></g></g></g><g fill="#bbcdc7" fill-opacity="1"><g transform="translate(37.675909, 61.499994)"><g><path d="M 12.273438 0.386719 C 17.578125 0.386719 20.828125 -2.863281 22.144531 -6.890625 L 18.621094 -6.890625 C 17.691406 -4.53125 15.484375 -2.515625 12.234375 -2.515625 C 9.136719 -2.515625 6.621094 -4.644531 5.535156 -7.9375 C 5.304688 -8.59375 5.148438 -9.40625 5.109375 -10.066406 L 22.53125 -10.066406 L 22.53125 -11.226562 C 22.53125 -18.117188 17.578125 -21.796875 12.195312 -21.796875 C 5.574219 -21.796875 1.859375 -16.453125 1.859375 -10.648438 C 1.859375 -4.335938 6.117188 0.386719 12.273438 0.386719 Z M 5.421875 -12.96875 C 5.535156 -13.628906 5.730469 -14.402344 6.039062 -15.058594 C 7.199219 -17.5 9.40625 -18.894531 12.273438 -18.894531 C 15.019531 -18.894531 17.421875 -17.539062 18.542969 -15.058594 C 18.816406 -14.441406 18.96875 -13.667969 19.007812 -12.96875 Z M 5.421875 -12.96875 "/></g></g></g><g fill="#bbcdc7" fill-opacity="1"><g transform="translate(65.042436, 61.499994)"><g><path d="M 12.195312 8.515625 C 17.808594 8.515625 21.835938 6.234375 21.835938 -0.734375 L 21.835938 -21.410156 L 18.542969 -21.410156 L 18.542969 -18.078125 C 16.375 -20.867188 14.480469 -21.796875 11.5 -21.796875 C 5.769531 -21.796875 2.011719 -17.265625 2.011719 -10.609375 C 2.011719 -4.140625 5.769531 0.386719 11.535156 0.386719 C 14.402344 0.386719 16.335938 -0.464844 18.542969 -3.328125 L 18.542969 -0.117188 C 18.542969 3.445312 16.648438 5.613281 12.15625 5.613281 C 8.632812 5.613281 6.660156 4.296875 6 1.742188 L 2.632812 1.742188 C 3.484375 6.929688 7.859375 8.515625 12.195312 8.515625 Z M 11.847656 -2.515625 C 7.820312 -2.515625 5.304688 -6.039062 5.304688 -10.722656 C 5.304688 -15.371094 7.820312 -18.894531 11.847656 -18.894531 C 15.796875 -18.894531 18.660156 -15.449219 18.660156 -10.722656 C 18.660156 -5.960938 15.835938 -2.515625 11.847656 -2.515625 Z M 11.847656 -2.515625 "/></g></g></g><g fill="#bbcdc7" fill-opacity="1"><g transform="translate(92.641206, 61.499994)"><g><path d="M 12.273438 0.386719 C 17.578125 0.386719 20.828125 -2.863281 22.144531 -6.890625 L 18.621094 -6.890625 C 17.691406 -4.53125 15.484375 -2.515625 12.234375 -2.515625 C 9.136719 -2.515625 6.621094 -4.644531 5.535156 -7.9375 C 5.304688 -8.59375 5.148438 -9.40625 5.109375 -10.066406 L 22.53125 -10.066406 L 22.53125 -11.226562 C 22.53125 -18.117188 17.578125 -21.796875 12.195312 -21.796875 C 5.574219 -21.796875 1.859375 -16.453125 1.859375 -10.648438 C 1.859375 -4.335938 6.117188 0.386719 12.273438 0.386719 Z M 5.421875 -12.96875 C 5.535156 -13.628906 5.730469 -14.402344 6.039062 -15.058594 C 7.199219 -17.5 9.40625 -18.894531 12.273438 -18.894531 C 15.019531 -18.894531 17.421875 -17.539062 18.542969 -15.058594 C 18.816406 -14.441406 18.96875 -13.667969 19.007812 -12.96875 Z M 5.421875 -12.96875 "/></g></g></g><g fill="#bbcdc7" fill-opacity="1"><g transform="translate(120.007734, 61.499994)"><g><path d="M 6.039062 0 L 6.039062 -9.136719 C 6.039062 -13.511719 6.582031 -15.835938 7.976562 -17.304688 C 8.867188 -18.273438 10.144531 -18.894531 11.886719 -18.894531 C 13.355469 -18.894531 14.441406 -18.503906 15.175781 -17.691406 C 16.027344 -16.726562 16.414062 -15.175781 16.414062 -12.890625 L 16.414062 0 L 19.707031 0 L 19.707031 -12.890625 C 19.707031 -14.246094 19.707031 -16.492188 18.699219 -18.429688 C 17.652344 -20.402344 15.757812 -21.796875 12.390625 -21.796875 C 10.066406 -21.796875 8.207031 -20.867188 6.039062 -18.078125 L 6.039062 -21.410156 L 2.75 -21.410156 L 2.75 0 Z M 6.039062 0 "/></g></g></g><g fill="#bbcdc7" fill-opacity="1"><g transform="translate(145.322796, 61.499994)"><g><path d="M 11.460938 0.386719 C 14.402344 0.386719 16.300781 -0.542969 18.46875 -3.328125 L 18.46875 0 L 21.757812 0 L 21.757812 -29.539062 L 18.46875 -29.539062 L 18.46875 -18.078125 C 16.261719 -20.945312 14.324219 -21.796875 11.460938 -21.796875 C 5.691406 -21.796875 1.9375 -17.265625 1.9375 -10.683594 C 1.9375 -4.140625 5.691406 0.386719 11.460938 0.386719 Z M 11.769531 -2.515625 C 7.742188 -2.515625 5.226562 -6.039062 5.226562 -10.683594 C 5.226562 -15.371094 7.742188 -18.894531 11.769531 -18.894531 C 15.757812 -18.894531 18.582031 -15.449219 18.582031 -10.683594 C 18.582031 -5.960938 15.757812 -2.515625 11.769531 -2.515625 Z M 11.769531 -2.515625 "/></g></g></g><g fill="#bbcdc7" fill-opacity="1"><g transform="translate(172.882856, 61.499994)"><g><path d="M 6.621094 0 L 6.621094 -13.277344 L 21.410156 -13.277344 L 21.410156 0 L 24.972656 0 L 24.972656 -29.539062 L 21.410156 -29.539062 L 21.410156 -16.453125 L 6.621094 -16.453125 L 6.621094 -29.539062 L 3.058594 -29.539062 L 3.058594 0 Z M 6.621094 0 "/></g></g></g><g fill="#bbcdc7" fill-opacity="1"><g transform="translate(203.965258, 61.499994)"><g><path d="M 12.3125 0.386719 C 18.503906 0.386719 22.84375 -4.335938 22.84375 -10.800781 C 22.84375 -17.152344 18.429688 -21.796875 12.3125 -21.796875 C 6.195312 -21.796875 1.859375 -17.152344 1.859375 -10.800781 C 1.859375 -4.257812 6.195312 0.386719 12.3125 0.386719 Z M 12.3125 -2.515625 C 8.246094 -2.515625 5.148438 -5.960938 5.148438 -10.800781 C 5.148438 -15.449219 8.207031 -18.894531 12.3125 -18.894531 C 16.453125 -18.894531 19.511719 -15.371094 19.511719 -10.800781 C 19.511719 -6.039062 16.414062 -2.515625 12.3125 -2.515625 Z M 12.3125 -2.515625 "/></g></g></g><g fill="#bbcdc7" fill-opacity="1"><g transform="translate(231.718861, 61.499994)"><g><path d="M 12.3125 0.386719 C 18.503906 0.386719 22.84375 -4.335938 22.84375 -10.800781 C 22.84375 -17.152344 18.429688 -21.796875 12.3125 -21.796875 C 6.195312 -21.796875 1.859375 -17.152344 1.859375 -10.800781 C 1.859375 -4.257812 6.195312 0.386719 12.3125 0.386719 Z M 12.3125 -2.515625 C 8.246094 -2.515625 5.148438 -5.960938 5.148438 -10.800781 C 5.148438 -15.449219 8.207031 -18.894531 12.3125 -18.894531 C 16.453125 -18.894531 19.511719 -15.371094 19.511719 -10.800781 C 19.511719 -6.039062 16.414062 -2.515625 12.3125 -2.515625 Z M 12.3125 -2.515625 "/></g></g></g><g fill="#bbcdc7" fill-opacity="1"><g transform="translate(259.472452, 61.499994)"><g><path d="M 11.460938 0.386719 C 14.402344 0.386719 16.300781 -0.542969 18.46875 -3.328125 L 18.46875 0 L 21.757812 0 L 21.757812 -29.539062 L 18.46875 -29.539062 L 18.46875 -18.078125 C 16.261719 -20.945312 14.324219 -21.796875 11.460938 -21.796875 C 5.691406 -21.796875 1.9375 -17.265625 1.9375 -10.683594 C 1.9375 -4.140625 5.691406 0.386719 11.460938 0.386719 Z M 11.769531 -2.515625 C 7.742188 -2.515625 5.226562 -6.039062 5.226562 -10.683594 C 5.226562 -15.371094 7.742188 -18.894531 11.769531 -18.894531 C 15.757812 -18.894531 18.582031 -15.449219 18.582031 -10.683594 C 18.582031 -5.960938 15.757812 -2.515625 11.769531 -2.515625 Z M 11.769531 -2.515625 "/></g></g></g></svg>