<svg xmlns="http://www.w3.org/2000/svg" xmlns:xlink="http://www.w3.org/1999/xlink" width="500" zoomAndPan="magnify" viewBox="0 0 375 299.999988" height="400" preserveAspectRatio="xMidYMid meet" version="1.0"><defs><clipPath id="id1"><path d="M 7 18.066406 L 309 18.066406 L 309 201 L 7 201 Z M 7 18.066406 " clip-rule="nonzero"/></clipPath><clipPath id="id2"><path d="M 61 142 L 368 142 L 368 282.066406 L 61 282.066406 Z M 61 142 " clip-rule="nonzero"/></clipPath></defs><g clip-path="url(#id1)"><path fill="#00c807" d="M 93.699219 178.664062 L 130.542969 199.941406 C 145.847656 202.921875 161.96875 192.082031 173.210938 182.59375 C 199.082031 156.03125 230.234375 134.078125 266.941406 127.164062 L 146.253906 57.371094 C 157.632812 52.492188 170.230469 49.917969 183.367188 49.917969 C 229.558594 49.917969 268.160156 82.714844 277.101562 126.214844 C 287.667969 124.726562 297.824219 124.453125 308.527344 125.808594 C 299.042969 65.230469 246.625 18.746094 183.367188 18.746094 C 158.039062 18.746094 134.472656 26.199219 114.558594 39.074219 L 81.914062 20.238281 C 73.652344 15.492188 63.085938 18.339844 58.347656 26.605469 L 9.992188 110.359375 C 5.25 118.625 8.09375 129.199219 16.355469 133.941406 L 31.933594 143.019531 L 31.796875 142.75 L 93.429688 178.800781 L 93.429688 178.664062 Z M 101.554688 95.996094 C 106.296875 106.160156 140.296875 100.332031 140.296875 124.320312 C 140.296875 137.058594 131.085938 144.105469 118.894531 145.324219 L 118.894531 158.199219 L 107.246094 158.199219 L 107.246094 144.78125 C 99.253906 143.292969 92.210938 139.902344 85.84375 134.210938 L 93.292969 125.402344 C 96.679688 128.382812 100.203125 130.554688 103.722656 132.179688 C 111.984375 135.839844 128.105469 136.246094 128.105469 125.539062 C 128.105469 109.546875 88.6875 120.796875 88.6875 93.554688 C 88.6875 82.441406 96.679688 75.125 107.378906 73.363281 L 107.378906 60.214844 L 119.03125 60.214844 L 119.03125 73.363281 C 126.207031 74.308594 132.4375 77.292969 138.128906 81.765625 L 131.492188 91.117188 C 128.238281 88.8125 125.125 86.914062 121.875 85.695312 C 113.070312 82.171875 100.878906 83.390625 100.878906 92.335938 C 100.878906 93.691406 101.148438 94.910156 101.554688 95.996094 Z M 101.554688 95.996094 " fill-opacity="1" fill-rule="evenodd"/></g><g clip-path="url(#id2)"><path fill="#00c807" d="M 279.132812 143.5625 C 246.894531 147.085938 215.742188 164.570312 185.535156 195.875 C 159.800781 217.558594 136.910156 223.65625 116.726562 214.304688 C 112.257812 212.273438 108.058594 209.425781 103.859375 205.769531 L 61.867188 181.101562 C 64.308594 189.640625 67.691406 197.90625 71.890625 205.496094 C 94.105469 242.765625 138.804688 263.09375 182.828125 252.523438 C 225.085938 240.867188 259.355469 220.8125 285.90625 192.488281 C 262.742188 235.042969 216.148438 259.707031 146.121094 266.753906 C 146.527344 266.753906 184.859375 292.367188 235.515625 277.460938 C 265.585938 268.652344 290.644531 247.917969 304.867188 220 C 319.226562 195.875 341.167969 177.171875 367.175781 166.738281 C 339.273438 149.390625 309.746094 140.039062 279.132812 143.425781 Z M 279.132812 143.5625 " fill-opacity="1" fill-rule="evenodd"/></g></svg>