<svg preserveAspectRatio="xMidYMid meet" version="1.1" viewBox="0 0 692 600" xmlns="http://www.w3.org/2000/svg" xmlns:xlink="http://www.w3.org/1999/xlink" xml:space="preserve" class="css-ybcrgc-ErrorAsset"><ellipse cx="638.4" cy="313.1" fill="none" rx="52.6" ry="30.4" stroke="#0d5068" stroke-linejoin="round" stroke-miterlimit="10"></ellipse><ellipse cx="638.4" cy="313.1" fill="none" rx="27.4" ry="15.8" stroke="#0d5068" stroke-linejoin="round" stroke-miterlimit="10"></ellipse><path d="m193 268.4 23.1 13.4m61.8-64.3 23.1 13.3" stroke="#0d234c" stroke-linejoin="round" stroke-miterlimit="10"></path><ellipse cx="525.5" cy="435.2" fill="none" rx="11.9" ry="6.9" stroke="#0d234c" stroke-linejoin="round" stroke-miterlimit="10"></ellipse><path d="M484.1 411.9l40.5 23.2" fill="none" stroke="#0d234c" stroke-linejoin="round" stroke-miterlimit="10"></path><ellipse cx="525.5" cy="435.2" fill="#0d234c" rx="3.7" ry="2.1"></ellipse><path d="M423 448l9.9 5.3c6.7 3.9 16.8 4.3 22.6.9l132.9-76.9c5.8-3.3 5.1-9.2-1.6-13l-9.9-5.3m-255-199.5l29.4-17c5.2-3 14.3-2.6 20.3.8l26.5 15.3" fill="none" stroke="#0d234c" stroke-linejoin="round" stroke-miterlimit="10"></path><g opacity="0.5"><path d="M422.5 145.3c4.5 2.6-20 16.8-15.5 19.4 4.5 2.6 29-11.6 33.5-9 4.5 2.6-20 16.8-15.5 19.4 4.5 2.6 29-11.6 33.5-9 4.5 2.6-20 16.8-15.5 19.4 4.5 2.6 29-11.6 33.6-9 4.5 2.6-20 16.8-15.5 19.4 4.5 2.6 29-11.6 33.6-9 4.5 2.6-20 16.8-15.5 19.4 4.5 2.6 29.1-11.6 33.6-9 4.5 2.6-20 16.8-15.5 19.4 4.5 2.6 29.1-11.6 33.6-9 4.5 2.6-20 16.8-15.5 19.4 4.5 2.6 29-11.6 33.6-9 4.5 2.6-20 16.8-15.5 19.4 4.5 2.6 29.1-11.6 33.6-9 4.5 2.6-20 16.8-15.5 19.4 4.5 2.6 29.1-11.6 33.6-9 4.5 2.6-20 16.8-15.5 19.4" fill="none"></path><path d="M403.2 162.9c4.6 2.7 29.7-11.8 34.3-9.2 4.6 2.7-20.5 17.1-15.9 19.8 4.6 2.7 29.7-11.8 34.3-9.2 4.6 2.7-20.5 17.1-15.9 19.8 4.6 2.7 29.7-11.8 34.3-9.2 4.6 2.7-20.5 17.1-15.9 19.8 4.6 2.7 29.7-11.8 34.3-9.2 4.6 2.7-20.5 17.1-15.9 19.8 4.6 2.7 29.7-11.8 34.3-9.2 4.6 2.7-20.5 17.1-15.9 19.8 4.6 2.7 29.7-11.8 34.3-9.2 4.6 2.7-20.5 17.1-15.9 19.8 4.6 2.7 29.7-11.8 34.3-9.2 4.6 2.7-20.5 17.1-15.9 19.8 4.6 2.7 29.7-11.8 34.3-9.2 4.6 2.7-20.5 17.1-15.9 19.8 4.6 2.7 29.7-11.8 34.3-9.2" fill="none" opacity="0.3" stroke="#0d5068" stroke-linecap="round" stroke-miterlimit="10" stroke-width="6"></path></g><path d="M576.2 243.3l-69.5 40.6m76.3-37.3l-69.5 40.7m77.9-37.3L522 290.7" stroke="#0d234c" stroke-miterlimit="10"></path><path d="M339.5 451.2l31.2-17.9-13.6-4.1h1.7l-28.1 16.1zm79 0l-31.3-17.9 13.7-4.1h-1.7l28.1 16.1zm30.4-18l-31.3-17.9 13.7-4.1h-1.7l28.1 16.1zm30.7-17.1l-31.3-18L462 394h-1.7l28.1 16.1zm30.8-17.6l-31.2-17.9 13.7-4.1h-1.7l28.1 16.1zm31-17.6L510.2 363l13.6-4.1h-1.7l28.1 16.1zM572 363l-31.3-18 13.7-4.1h-1.7l28.1 16.1zm-262.9 70.7l31.3-17.9-13.7-4.1h1.7l-28.1 16.1zm-30.8-17.6l31.3-18-13.7-4.1h1.7l-28.1 16.1zm-31-17.6l31.3-17.9-13.7-4.1h1.7l-28.1 16.1zm-30.8-17.6l31.3-17.9-13.7-4.1h1.7L207.7 375zM186 363.3l31.2-17.9-13.6-4.1h1.7l-28.1 16.1z" fill="#112a4c" opacity=".5"></path><path d="M334.1 448.1l-69.4 40.7m39.2-58.4l-69.5 40.7m39.2-58.4l-69.5 40.7m39.2-58.4l-69.4 40.7m39.1-58.4L143.6 418m39.2-58.4l-69.5 40.7" fill="#0d5068" stroke="#0d234c" stroke-miterlimit="10"></path><path d="M87.1 394.8L12.7 352c-15.6-9-15.6-23.6 0-32.5l59.5-34.7" fill="none" stroke="#0d234c" stroke-linejoin="round" stroke-miterlimit="10"></path><path d="M93.4 391.1L19 348.3c-12.1-7-12.1-18.3 0-25.3l59.5-34.7" fill="none" stroke="#0d234c" stroke-linejoin="round" stroke-miterlimit="10"></path><path d="M99.6 387.5l-74.4-42.8c-8.6-5-8.6-13.1 0-18.1l59.5-34.7" fill="none" stroke="#0d234c" stroke-linejoin="round" stroke-miterlimit="10"></path><path d="M105.9 383.9l-74.4-42.8c-5.2-3-5.2-7.9 0-10.8L91 295.6" fill="none" stroke="#0d234c" stroke-linejoin="round" stroke-miterlimit="10"></path><path d="M112.2 380.3l-74.4-42.8c-1.7-1-1.7-2.6 0-3.6l59.5-34.7" fill="none" stroke="#0d234c" stroke-linejoin="round" stroke-miterlimit="10"></path><path d="M341.7 160.7l-3.6 1.3a38.9 38.9 0 00-12.3-10.7c-19.3-11.1-48.5-12.4-65.2-2.7L77.2 255.2a27 27 0 00-3.9 2.7l-7.4 2.7v11.1c0 7.4 5.4 15.2 16 21.3 19.3 11.1 48.5 12.4 65.2 2.7l183.3-106.6c7.7-4.4 11.4-10.4 11.3-16.7v-11.7z" fill="#0d5068"></path><path d="M341.7 160.7l-3.6 1.3a38.9 38.9 0 00-12.3-10.7c-19.3-11.1-48.5-12.4-65.2-2.7L77.2 255.2a27 27 0 00-3.9 2.7l-7.4 2.7v11.1c0 7.4 5.4 15.2 16 21.3 19.3 11.1 48.5 12.4 65.2 2.7l183.3-106.6c7.7-4.4 11.4-10.4 11.3-16.7v-11.7z" fill="none" stroke="#0d5068" stroke-miterlimit="10"></path><path d="M147.1 284.6L330.4 178c16.7-9.7 14.6-26.5-4.7-37.7-19.3-11.1-48.5-12.4-65.2-2.7L77.2 244.2c-16.7 9.7-14.6 26.5 4.7 37.7 19.3 11.1 48.5 12.3 65.2 2.7z" fill="#ff5000" stroke="#0d5068" stroke-miterlimit="10"></path><path d="M453.1 429.9l40.5 23.2" fill="none" stroke="#0d234c" stroke-linejoin="round" stroke-miterlimit="10"></path><path d="M575 331.7v-33.5l-46.1-.3-133.5-83.7a35 35 0 00-31.4-1.3l-133.1 83.2-48.6-.3-.2 35.3c0 3.6 2.6 7.3 7.7 10.2l172 99.3a35 35 0 0031.4 1.3L569.7 340c3.8-2.2 5.5-5.2 5.3-8.3z" fill="#acc4cb"></path><path d="M575 331.7v-33.5l-46.1-.3-133.5-83.7a35 35 0 00-31.4-1.3l-133.1 83.2-48.6-.3-.2 35.3c0 3.6 2.6 7.3 7.7 10.2l172 99.3a35 35 0 0031.4 1.3L569.7 340c3.8-2.2 5.5-5.2 5.3-8.3z" fill="none" stroke="#0d5068" stroke-miterlimit="10"></path><path d="M569.6 306.5L393.1 408.4c-8 4.6-22.1 4.1-31.4-1.3l-172-99.3c-9.3-5.4-10.3-13.5-2.3-18.1L364 187.8c8-4.6 22.1-4.1 31.4 1.3l172 99.3c9.2 5.4 10.2 13.5 2.2 18.1z" fill="#f8f7f8" stroke="#0d5068" stroke-miterlimit="10"></path><path d="M550.2 296.3v-15.6h-22.9l-142.4-82.2c-3.5-2-8.7-2.2-11.8-.5l-143.2 82.7H207v15.9h.1c.3 1 1.3 2.1 2.7 2.9l162.5 93.8c3.5 2 8.7 2.2 11.8.5L548.2 299c1.2-.7 1.8-1.5 2-2.4v-.3z" fill="#c73e00"></path><path d="M550.2 296.3v-15.6h-22.9l-142.4-82.2c-3.5-2-8.7-2.2-11.8-.5l-143.2 82.7H207v15.9h.1c.3 1 1.3 2.1 2.7 2.9l162.5 93.8c3.5 2 8.7 2.2 11.8.5L548.2 299c1.2-.7 1.8-1.5 2-2.4v-.3z" fill="none" stroke="#0d5068" stroke-miterlimit="10"></path><path d="M372.2 378l-162.5-93.8c-3.5-2-3.9-5-.8-6.8l164.2-94.8c3-1.7 8.3-1.5 11.8.5L547.3 277c3.5 2 3.9 5 .8 6.8L384 378.5c-3 1.8-8.3 1.6-11.8-.5zm-7.8-27.9l1.7 1zM313 320.4l.4.2zm-52.2-30.2l20.1 11.6-20.1-11.6z" fill="#ff5000" stroke="#0d5068" stroke-miterlimit="10"></path><path d="M302.7 314.4l9 5.3v-.1zm190.2-22.2l-30.1 17.4h-.1l-15.3 8.9h-.1L417 336l-15.2 8.8-.1.1-23.2 13.3 126.9-73.1h-.1l-12.3 7zm-153.1 43.7l4.7 2.7-4.7-2.7zm-1.7-1l.6.3-.6-.3zM259 289.2l1.3.8-1.2-.8z" fill="#ff5000" stroke="#0d5068" stroke-miterlimit="10"></path><path d="M426.6 315.2l-5.6-12-20.7-3.2-5.6-12-20.8-3.3-5.6-12-20.7-3.2-5.6-12-20.8-3.2-2.9-6.2h-.1l2.9 6.3 20.8 3.2 5.6 12 20.7 3.2 5.6 12 20.8 3.2 5.5 12 20.8 3.2 5.6 12 20.8 3.2v.1h.1v-.1zm-166.2-25.7l-1.3-.3 1.2.8.4.2z" fill="#ff5000" stroke="#0d5068" stroke-miterlimit="10"></path><path d="M253 285.8l6 3.4 1.4.2 15.1-8.7-2.9-6.3z" fill="#ff5000" stroke="#0d5068" stroke-miterlimit="10"></path><path d="M260.4 289.5v-.1l-1.4-.2h.1zm45.5-26.3l-10.8-1.7-22.4 12.9 2.9 6.3 20.8 3.2 15.1-8.7z" fill="#ff5000" stroke="#0d5068" stroke-miterlimit="10"></path><path d="M272.7 274.4h-.1l2.9 6.3h.1zm48.4-20l-2.9-6.3-23.1 13.4 10.8 1.7zm-15.2 8.8l-10.8-1.7zm36.1-5.7l15.2-8.7-5.6-12-10.8-1.7-22.5 13 2.9 6.2zm-56.6 47l1.7.9-.4-.7zm46.9-26.1l-20.8-3.2-15.1 8.7 5.5 12 20.8 3.2 15.1-8.7z" fill="#ff5000" stroke="#0d5068" stroke-miterlimit="10"></path><path d="M378 252l-20.8-3.2-15.2 8.7 5.6 12 20.7 3.2 15.2-8.7zm-11.3-23.9l-2.9-6.3-23 13.3 10.8 1.7zm-15.1 8.7l-10.8-1.7zm-64.9 67.8l15.2-8.7-5.6-12-20.8-3.2-15.1 8.7.4.8 20.1 11.6 4.5 2.6z" fill="#ff5000" stroke="#0d5068" stroke-miterlimit="10"></path><path d="M260.4 289.4v.1l.3.7h.1zm15.2-8.7h-.1l20.8 3.2h.1zm9.8 23.8l1.3.2v-.1l-1.3-.2zm11-20.6h-.1l5.6 12zm15.1-8.7l20.8 3.2 15.2-8.8-5.6-12-20.8-3.2-15.2 8.8zm0 0l-5.6-12 5.6 12zm20.8 3.2l-20.8-3.2zM378 252l15.1-8.7-5.6-12-20.8-3.2-15.1 8.7 5.6 12zm-26.4-15.2l5.6 12zM378 252l-20.8-3.2L378 252zm-64.9 67.9l-1.4-.2 1.3.7.4.2zm45.5-26.3l-20.8-3.2-15.1 8.7 5.6 12 20.8 3.2 15.1-8.7zm45.7-26.4l-20.8-3.2-15.2 8.7 5.6 12 20.8 3.3 15.2-8.8zm-16.7-36l12.2-7-20.1-11.6-15.8 9.1 2.9 6.3z" fill="#ff5000" stroke="#0d5068" stroke-miterlimit="10"></path><path d="M366.8 228l-2.9-6.3-.1.1 2.9 6.3z" fill="#ff5000" stroke="#0d5068" stroke-miterlimit="10"></path><path d="M387.6 231.2l-20.8-3.2-.1.1 20.8 3.2zm5.6 12l20.8 3.2 12.1-7-26.3-15.2-12.2 7zM393.1 243.3l.1-.1-5.6-12-.1.1zm26.4 15.1l20.8 3.2 12.2-7-26.4-15.2-12.1 7zm-106.4 61.5l15.1-8.8-5.6-12-20.7-3.2-15.2 8.7.4.8 15.6 9 9 5.2z" fill="#ff5000" stroke="#0d5068" stroke-miterlimit="10"></path><path d="M287.1 305.4l-.4-.8v.1zm14.8-9.5l20.7 3.2h.1zm11.2 24l-1.4-.3v.1zm9.6-20.8h-.1l5.6 12h.1zm15.1-8.7l20.8 3.2 15.2-8.8-5.6-12-20.7-3.2-15.2 8.8zm0 0l-5.5-12zm20.8 3.2l-20.8-3.2zm45.7-26.4l15.1-8.7-5.6-12-20.7-3.2L378 252l5.6 12z" fill="#ff5000" stroke="#0d5068" stroke-miterlimit="10"></path><path d="M378 252l5.5 12h.1zm5.6 12h-.1l20.8 3.2zm30.2-17.5l.2-.1-20.8-3.2-.1.1z" fill="#ff5000" stroke="#0d5068" stroke-miterlimit="10"></path><path d="M419.4 258.5l.1-.1-5.5-12-.2.1zm-91.2 52.6l-15.1 8.8.4.8 24.6 14.2 1.3.2 15.1-8.8-5.5-12z" fill="#ff5000" stroke="#0d5068" stroke-miterlimit="10"></path><path d="M313.1 319.9l.3.7.1.1zm36-5.6l-20.8-3.2h-.1l20.8 3.2zm15.1-8.7l20.8 3.2 15.1-8.8-5.5-12-20.8-3.2-15.2 8.8zm0 0l-5.6-12zm55.2-47.1l-15.1 8.7 5.6 12 20.8 3.2 15-8.7-5.5-12zm-15.1 8.7l5.6 12z" fill="#ff5000" stroke="#0d5068" stroke-miterlimit="10"></path><path d="M440.2 261.7l.1-.1-20.8-3.2-.1.1zm-100.8 73.4l-1.3-.2.6.3 1.1.6zm0 0l-1.3-.2zm45.5-26.3l-20.7-3.2-15.1 8.7 5.5 12 20.8 3.2 15.1-8.7z" fill="#ff5000" stroke="#0d5068" stroke-miterlimit="10"></path><path d="M349.1 314.3h-.1l5.5 12h.1zm35.8-5.5h.1l-20.8-3.2zm45.8-26.4l-20.8-3.2-15.2 8.8 5.6 12 20.7 3.2 15.2-8.8zm-20.8-3.2l20.8 3.2-20.8-3.2zm36-5.6l20.7 3.2 12.2-7-26.3-15.2-12.2 7z" fill="#ff5000" stroke="#0d5068" stroke-miterlimit="10"></path><path d="M445.7 273.7l.2-.1-5.6-12-.1.1zm-79.9 76.6l15.1-8.7-5.6-12-20.8-3.3-15.1 8.8.4.8 4.7 2.7 19.9 11.5z" fill="#ff5000" stroke="#0d5068" stroke-miterlimit="10"></path><path d="M339.4 335.1l.4.7v.1zm15.2-8.8h-.1l20.8 3.3.1-.1zm35.9-5.5l20.8 3.2 15.2-8.8-5.6-12-20.8-3.2-15.1 8.8z" fill="#ff5000" stroke="#0d5068" stroke-miterlimit="10"></path><path d="M390.5 320.8l-5.5-12h-.1zm55.2-47.1l-15 8.7 5.5 12 20.8 3.2 15.1-8.7-5.6-12zm-9.5 20.7l-5.5-12z" fill="#ff5000" stroke="#0d5068" stroke-miterlimit="10"></path><path d="M445.7 273.7l20.8 3.2.1-.1-20.7-3.2zm-79.6 77.4l-.3-.8-1.4-.2zm-.3-.8l-1.4-.2zm24.7-29.5l-15.1 8.7 5.6 12 20.7 3.2 15.1-8.7-5.5-12z" fill="#ff5000" stroke="#0d5068" stroke-miterlimit="10"></path><path d="M375.4 329.5l-.1.1 5.6 12 .1-.1zm15.1-8.7l20.8 3.2-20.8-3.2zm45.7-26.4l-15.2 8.8 5.6 12 20.8 3.2 15.2-8.8-5.6-12zm0 0l20.8 3.2-20.8-3.2zm30.4-17.6l5.6 12L493 292l12.2-7-26.4-15.2z" fill="#ff5000" stroke="#0d5068" stroke-miterlimit="10"></path><path d="M472.1 288.9l.1-.1-5.6-12-.1.1zm-70.4 55.9l-20.8-3.2-15.1 8.7.3.8 12.4 7.1 23.2-13.3zm-35.9 5.5l.3.8z" fill="#ff5000" stroke="#0d5068" stroke-miterlimit="10"></path><path d="M381 341.5l-.1.1 20.8 3.2v-.1zm45.5-26.3l-15.2 8.8 5.6 12h.1l30.3-17.5v-.1z" fill="#ff5000" stroke="#0d5068" stroke-miterlimit="10"></path><path d="M416.8 336h.1l-5.6-12zm55.3-47.1l-15.1 8.7 5.6 12h.2l30.1-17.4v-.1zm-9.5 20.7l-5.6-12z" fill="#ff5000" stroke="#0d5068" stroke-miterlimit="10"></path><path d="M472.1 288.9l20.8 3.2.1-.1-20.8-3.2zm-70.4 55.8l.1.1L417 336h-.2z" fill="#ff5000" stroke="#0d5068" stroke-miterlimit="10"></path><path d="M401.7 344.8v.1l.1-.1-.1-.1zm15.1-8.8h.2-.1zm30.6-17.6v.1l15.3-8.9h-.1zm15.2-8.8h.2-.2zM493 292v.1l12.3-7-.1-.1zm-.1.2l.1-.1v-.1l-.1.1z" fill="#ff5000" stroke="#0d5068" stroke-miterlimit="10"></path><path d="M244.1 280.6L378.6 203 513 280.6l-7.7 4.5-125.6-72.5-126.8 73.1z" fill="#0d5068" stroke="#0d5068" stroke-miterlimit="10"></path><path d="M207.1 331.2v20l-10.2-5.7-.2-20.3z" fill="#112a4c" stroke="#0d5068" stroke-linecap="round" stroke-linejoin="round" stroke-miterlimit="10"></path><path d="M196.7 325.2l-15.5 9a12.3 12.3 0 00-5.6 9.6v13.5l10.5 6v-13.6c0-3.5 2.5-7.8 5.5-9.6l15.4-8.9-10.3-6z" fill="#ff5000" stroke="#0d5068" stroke-miterlimit="10"></path><path d="M237.8 348.8v20.1l-10.2-5.8-.2-20.2z" fill="#112a4c" stroke="#0d5068" stroke-linecap="round" stroke-linejoin="round" stroke-miterlimit="10"></path><path d="M227.4 342.8l-15.5 9a12.3 12.3 0 00-5.6 9.6v13.5l10.5 6v-13.6c0-3.5 2.5-7.8 5.5-9.6l15.4-8.9-10.3-6z" fill="#ff5000" stroke="#0d5068" stroke-miterlimit="10"></path><path d="M268.4 366.4v20l-10.2-5.7-.1-20.3z" fill="#112a4c" stroke="#0d5068" stroke-linecap="round" stroke-linejoin="round" stroke-miterlimit="10"></path><path d="M258.1 360.4l-15.5 9a12.3 12.3 0 00-5.6 9.6v13.5l10.5 6v-13.6c0-3.5 2.5-7.8 5.5-9.6l15.4-8.9-10.3-6z" fill="#ff5000" stroke="#0d5068" stroke-miterlimit="10"></path><path d="M299.1 384v20l-10.2-5.8-.1-20.2z" fill="#112a4c" stroke="#0d5068" stroke-linecap="round" stroke-linejoin="round" stroke-miterlimit="10"></path><path d="M288.7 378l-15.5 9a12.3 12.3 0 00-5.6 9.6v13.5l10.5 6v-13.6c0-3.5 2.5-7.8 5.5-9.6L299 384l-10.3-6z" fill="#ff5000" stroke="#0d5068" stroke-miterlimit="10"></path><path d="M329.8 401.6v20l-10.2-5.8-.2-20.2z" fill="#112a4c" stroke="#0d5068" stroke-linecap="round" stroke-linejoin="round" stroke-miterlimit="10"></path><path d="M319.4 395.5l-15.5 9a12.3 12.3 0 00-5.6 9.6v13.5l10.5 6V420c0-3.5 2.5-7.8 5.5-9.6l15.4-8.9-10.3-6z" fill="#ff5000" stroke="#0d5068" stroke-miterlimit="10"></path><path d="M360.5 419.1v20l-10.3-5.8-.1-20.2z" fill="#112a4c" stroke="#0d5068" stroke-linecap="round" stroke-linejoin="round" stroke-miterlimit="10"></path><path d="M350.1 413.1l-15.5 9a12.3 12.3 0 00-5.6 9.6v13.5l10.5 6v-13.6c0-3.5 2.5-7.8 5.5-9.6l15.4-8.9-10.3-6z" fill="#f8f7f8" stroke="#0d5068" stroke-miterlimit="10"></path><path d="M550.7 331.2v19.2l10.2-5.8.2-19.4z" fill="#112a4c" stroke="#0d5068" stroke-linecap="round" stroke-linejoin="round" stroke-miterlimit="10"></path><path d="M561.1 325.2l15.5 9c3.1 1.8 5.6 6.1 5.6 9.6v13.5l-10.5 6v-13.6c0-3.5-2.5-7.8-5.5-9.6l-15.4-8.9 10.3-6z" fill="#ff5000" stroke="#0d5068" stroke-miterlimit="10"></path><path d="M520 348.8v20.1l10.3-5.8.1-20.2z" fill="#112a4c" stroke="#0d5068" stroke-linecap="round" stroke-linejoin="round" stroke-miterlimit="10"></path><path d="M530.4 342.8l15.5 9c3.1 1.8 5.6 6.1 5.6 9.6v13.5l-10.5 6v-13.6c0-3.5-2.5-7.8-5.5-9.6l-15.4-8.9 10.3-6z" fill="#ff5000" stroke="#0d5068" stroke-miterlimit="10"></path><path d="M489.4 366.4v20l10.2-5.7.1-20.3z" fill="#112a4c" stroke="#0d5068" stroke-linecap="round" stroke-linejoin="round" stroke-miterlimit="10"></path><path d="M499.7 360.4l15.5 9c3.1 1.8 5.6 6.1 5.6 9.6v13.5l-10.5 6v-13.6c0-3.5-2.5-7.8-5.5-9.6l-15.4-8.9 10.3-6z" fill="#ff5000" stroke="#0d5068" stroke-miterlimit="10"></path><path d="M458.7 384v20l10.2-5.8.2-20.2z" fill="#112a4c" stroke="#0d5068" stroke-linecap="round" stroke-linejoin="round" stroke-miterlimit="10"></path><path d="M469.1 378l15.5 9c3.1 1.8 5.6 6.1 5.6 9.6v13.5l-10.5 6v-13.6c0-3.5-2.5-7.8-5.5-9.6l-15.4-8.9 10.3-6z" fill="#ff5000" stroke="#0d5068" stroke-miterlimit="10"></path><path d="M428 401.6v20l10.2-5.8.2-20.2z" fill="#112a4c" stroke="#0d5068" stroke-linecap="round" stroke-linejoin="round" stroke-miterlimit="10"></path><path d="M438.4 395.5l15.5 9c3.1 1.8 5.6 6.1 5.6 9.6v13.5l-10.5 6V420c0-3.5-2.5-7.8-5.5-9.6l-15.4-8.9 10.3-6z" fill="#ff5000" stroke="#0d5068" stroke-miterlimit="10"></path><g><path d="M397.3 419.1v20l10.3-5.8.1-20.2z" fill="#112a4c" stroke="#0d5068" stroke-linecap="round" stroke-linejoin="round" stroke-miterlimit="10"></path><path d="M407.7 413.1l15.5 9c3.1 1.8 5.6 6.1 5.6 9.6v13.5l-10.5 6v-13.6c0-3.5-2.5-7.8-5.5-9.6l-15.4-8.9 10.3-6z" fill="#ff5000" stroke="#0d5068" stroke-miterlimit="10"></path></g><path d="M94.9 270l214.7-124.1" fill="#f8f7f8" stroke="#0d5068" stroke-miterlimit="10"></path><g><path d="M238.7 136a32.2 32.2 0 10-64.4 0v73.3c0 4.8 3.1 9.5 9.4 13.1a50 50 0 0045.5 0c6.3-3.6 9.4-8.4 9.4-13.1V136c.1.1.1.1.1 0z" fill="#f8f7f8"></path><path d="M238.7 136a32.2 32.2 0 10-64.4 0v73.3c0 4.8 3.1 9.5 9.4 13.1a50 50 0 0045.5 0c6.3-3.6 9.4-8.4 9.4-13.1V136c.1.1.1.1.1 0z" fill="none" stroke="#0d5068" stroke-miterlimit="10"></path><path d="M238.7 199c0 4.8-3.1 9.5-9.4 13.1a50 50 0 01-45.5 0c-6.3-3.6-9.4-8.4-9.4-13.1v-14.3c0 4.8 3.1 9.5 9.4 13.1a50 50 0 0045.5 0c6.3-3.6 9.4-8.4 9.4-13.1V199z" fill="#f8f7f8" stroke="#0d5068" stroke-miterlimit="10"></path><path d="M238.7 209.9c0 4.8-3.1 9.5-9.4 13.1a50 50 0 01-45.5 0c-6.3-3.6-9.4-8.4-9.4-13.1v-14.3c0 4.8 3.1 9.5 9.4 13.1a50 50 0 0045.5 0c6.3-3.6 9.4-8.4 9.4-13.1v14.3z" fill="#acc4cb" stroke="#0d5068" stroke-miterlimit="10"></path><path d="M229.2 177.5c-3.5 2-7.7 3.5-12.1 4.4a13.2 13.2 0 00-10.6 13v8.4" fill="none" stroke="#0d5068" stroke-linecap="round" stroke-linejoin="round" stroke-miterlimit="10"></path><ellipse cx="229.1" cy="176.9" fill="#acc4cb" rx="6.1" ry="3.5" stroke="#0d5068" stroke-miterlimit="10" transform="rotate(-60 229.1 176.9)"></ellipse><path d="M198.4 173c0-2.7-1.8-5.1-4.5-5.7-3.7-.9-7.2-2.2-10.2-4-6.3-3.6-9.4-8.4-9.4-13.1v14.3c0 4.8 3.1 9.5 9.4 13.1 3.2 1.8 6.9 3.2 10.9 4.1 1.9.4 3.8-1.1 3.8-3.1V173z" fill="#ff5000" stroke="#0d5068" stroke-miterlimit="10"></path></g><g><path d="M322.4 85.7a32.2 32.2 0 10-64.4 0V159c0 4.8 3.1 9.5 9.4 13.1a50 50 0 0045.5 0c6.3-3.6 9.4-8.4 9.4-13.1V85.7z" fill="#f8f7f8"></path><path d="M322.4 85.7a32.2 32.2 0 10-64.4 0V159c0 4.8 3.1 9.5 9.4 13.1a50 50 0 0045.5 0c6.3-3.6 9.4-8.4 9.4-13.1V85.7z" fill="none" stroke="#0d5068" stroke-miterlimit="10"></path><path d="M322.4 148.6c0 4.8-3.1 9.5-9.4 13.1a50 50 0 01-45.5 0c-6.3-3.6-9.4-8.4-9.4-13.1v-14.3c0 4.8 3.1 9.5 9.4 13.1a50 50 0 0045.5 0c6.3-3.6 9.4-8.4 9.4-13.1v14.3z" fill="#f8f7f8" stroke="#0d5068" stroke-miterlimit="10"></path><path d="M322.4 159.5c0 4.8-3.1 9.5-9.4 13.1a50 50 0 01-45.5 0c-6.3-3.6-9.4-8.4-9.4-13.1v-14.3c0 4.8 3.1 9.5 9.4 13.1a50 50 0 0045.5 0c6.3-3.6 9.4-8.4 9.4-13.1v14.3z" fill="#acc4cb" stroke="#0d5068" stroke-miterlimit="10"></path><path d="M312.9 127.1c-3.5 2-7.7 3.5-12.1 4.4a13.2 13.2 0 00-10.6 13v8.4" fill="none" stroke="#0d5068" stroke-linecap="round" stroke-linejoin="round" stroke-miterlimit="10"></path><ellipse cx="312.8" cy="126.5" fill="#acc4cb" rx="6.1" ry="3.5" stroke="#0d5068" stroke-miterlimit="10" transform="rotate(-60 312.8 126.5)"></ellipse><path d="M282.1 122.7c0-2.7-1.8-5.1-4.5-5.7-3.7-.9-7.2-2.2-10.2-4-6.3-3.6-9.4-8.4-9.4-13.1v14.3c0 4.8 3.1 9.5 9.4 13.1 3.2 1.8 6.9 3.2 10.9 4.1 1.9.4 3.8-1.1 3.8-3.1v-5.6z" fill="#ff5000" stroke="#0d5068" stroke-miterlimit="10"></path></g><g><path d="M149.9 183.5a32.2 32.2 0 10-64.4 0v73.3c0 4.8 3.1 9.5 9.4 13.1a50 50 0 0045.5 0c6.3-3.6 9.4-8.4 9.4-13.1l.1-73.3z" fill="#f8f7f8"></path><path d="M149.9 183.5a32.2 32.2 0 10-64.4 0v73.3c0 4.8 3.1 9.5 9.4 13.1a50 50 0 0045.5 0c6.3-3.6 9.4-8.4 9.4-13.1l.1-73.3z" fill="none" stroke="#0d5068" stroke-miterlimit="10"></path><path d="M149.9 246.4c0 4.8-3.1 9.5-9.4 13.1a50 50 0 01-45.5 0c-6.3-3.6-9.4-8.4-9.4-13.1v-14.3c0 4.8 3.1 9.5 9.4 13.1a50 50 0 0045.5 0c6.3-3.6 9.4-8.4 9.4-13.1v14.3z" fill="none" stroke="#0d5068" stroke-miterlimit="10"></path><path d="M149.9 257.3c0 4.8-3.1 9.5-9.4 13.1a50 50 0 01-45.5 0c-6.3-3.6-9.4-8.4-9.4-13.1V243c0 4.8 3.1 9.5 9.4 13.1a50 50 0 0045.5 0c6.3-3.6 9.4-8.4 9.4-13.1v14.3z" fill="#acc4cb" stroke="#0d5068" stroke-miterlimit="10"></path><path d="M140.5 224.9c-3.5 2-7.7 3.5-12.1 4.4a13.2 13.2 0 00-10.6 13v8.4" fill="none" stroke="#0d5068" stroke-linecap="round" stroke-linejoin="round" stroke-miterlimit="10"></path><ellipse cx="140.3" cy="224.3" fill="#acc4cb" rx="6.1" ry="3.5" stroke="#0d5068" stroke-miterlimit="10" transform="rotate(-60 140.3 224.3)"></ellipse><path d="M109.6 220.5c0-2.7-1.8-5.1-4.5-5.7-3.7-.9-7.2-2.2-10.2-4-6.3-3.6-9.4-8.4-9.4-13.1V212c0 4.8 3.1 9.5 9.4 13.1 3.2 1.8 6.9 3.2 10.9 4.1 1.9.4 3.8-1.1 3.8-3.1v-5.6z" fill="#ff5000" stroke="#0d5068" stroke-miterlimit="10"></path></g><g><path d="M136.4 379l1.4 1 3.1 2.4c2.7 2.2 6.7 2.1 11-.3l5.5-3.2-16.2-9-5.5 3.2c-4.2 2.5-8.3 2.6-11 .3l-2.9-2.4 14.6 8z" fill="rgb(235,80,0)" stroke="#0d5068" stroke-miterlimit="10"></path><path d="M137 379.4l-16.2-9c-2.6-1.4-6.2-1.1-9.9 1.1l-14.6 8.4c-4.2 2.5-8.3 7-11 12.3l-2.9 5.7a29.6 29.6 0 01-11 12.3l-5.5 3.2 16.2 9 5.5-3.2c4.2-2.5 8.3-7 11-12.3l2.9-5.7c2.7-5.3 6.7-9.9 11-12.3l14.6-8.4c3.8-2.2 7.4-2.5 10.1-1l-.2-.1z" fill="#c73e00" stroke="#0d5068" stroke-miterlimit="10"></path><path d="M82.1 422.4l5.5-3.2c4.2-2.5 8.3-7 11-12.3l2.9-5.7c2.7-5.3 6.7-9.9 11-12.3l14.6-8.4c3.8-2.2 7.4-2.5 10.1-1l-.2-.1-.6-.3 1.4 1 3.1 2.4c2.7 2.2 6.7 2.1 11-.3l5.5-3.2v7.3l-75.3 44.1v-8z" fill="#0d5068" stroke="#0d5068" stroke-miterlimit="10"></path><path d="M82.1 430.3l-16.2-9.1v-7.9l16.2 9.1z" fill="rgb(235,80,0)" stroke="#0d5068" stroke-miterlimit="10"></path><path d="M119.8 384.6v23.6" fill="none" stroke="#0d5068" stroke-linejoin="round" stroke-miterlimit="10"></path><path d="M168.5 396.8l1.4 1 3.1 2.4c2.7 2.2 6.7 2.1 11-.3l5.5-3.2-16.2-9-5.5 3.2c-4.2 2.5-8.3 2.6-11 .3l-2.9-2.4 14.6 8z" fill="rgb(235,80,0)" stroke="#0d5068" stroke-miterlimit="10"></path><path d="M169.1 397.2l-16.2-9c-2.6-1.4-6.2-1.1-9.9 1.1l-14.6 8.4c-4.2 2.5-8.3 7-11 12.3l-2.9 5.7a29.6 29.6 0 01-11 12.3l-5.5 3.2 16.2 9 5.5-3.2c4.2-2.5 8.3-7 11-12.3l2.9-5.7c2.7-5.3 6.7-9.9 11-12.3l14.6-8.4c3.8-2.2 7.4-2.5 10.1-1l-.2-.1z" fill="#c73e00" stroke="#0d5068" stroke-miterlimit="10"></path><path d="M114.3 440.2l5.5-3.2c4.2-2.5 8.3-7 11-12.3l2.9-5.7c2.7-5.3 6.7-9.9 11-12.3l14.6-8.4c3.8-2.2 7.4-2.5 10.1-1l-.2-.1-.6-.3 1.4 1 3.1 2.4c2.7 2.2 6.7 2.1 11-.3l5.5-3.2v7.3l-75.3 44.1v-8z" fill="#0d5068" stroke="#0d5068" stroke-miterlimit="10"></path><path d="M114.3 448.1L98 439v-7.9l16.3 9.1z" fill="rgb(235,80,0)" stroke="#0d5068" stroke-miterlimit="10"></path><path d="M151.9 402.4V426" fill="none" stroke="#0d5068" stroke-linejoin="round" stroke-miterlimit="10"></path><path d="M200.7 413.8l1.4 1 3.1 2.4c2.7 2.2 6.7 2.1 11-.3l5.5-3.2-16.2-9-5.5 3.2c-4.2 2.5-8.3 2.6-11 .3l-2.9-2.4 14.6 8z" fill="rgb(235,80,0)" stroke="#0d5068" stroke-miterlimit="10"></path><path d="M201.2 414.1l-16.2-9c-2.6-1.4-6.2-1.1-9.9 1.1l-14.6 8.4c-4.2 2.5-8.3 7-11 12.3l-2.9 5.7a29.6 29.6 0 01-11 12.3l-5.5 3.2 16.2 9 5.5-3.2c4.2-2.5 8.3-7 11-12.3l2.9-5.7c2.7-5.3 6.7-9.9 11-12.3l14.6-8.4c3.8-2.2 7.4-2.5 10.1-1l-.2-.1z" fill="#c73e00" stroke="#0d5068" stroke-miterlimit="10"></path><path d="M146.4 457.1l5.5-3.2c4.2-2.5 8.3-7 11-12.3l2.9-5.7c2.7-5.3 6.7-9.9 11-12.3l14.6-8.4c3.8-2.2 7.4-2.5 10.1-1l-.2-.1-.6-.3 1.4 1 3.1 2.4c2.7 2.2 6.7 2.1 11-.3l5.5-3.2v7.3l-75.3 44v-7.9z" fill="#0d5068" stroke="#0d5068" stroke-miterlimit="10"></path><path d="M146.4 465l-16.2-9v-7.9l16.2 9z" fill="rgb(235,80,0)" stroke="#0d5068" stroke-miterlimit="10"></path><path d="M184.1 419.4V443" fill="none" stroke="#0d5068" stroke-linejoin="round" stroke-miterlimit="10"></path><g><path d="M232.8 433.1l1.4 1 3.1 2.4c2.7 2.2 6.7 2.1 11-.3l5.5-3.2-16.2-9-5.5 3.2c-4.2 2.5-8.3 2.6-11 .3l-2.9-2.4 14.6 8z" fill="rgb(235,80,0)" stroke="#0d5068" stroke-miterlimit="10"></path><path d="M233.4 433.4l-16.2-9c-2.6-1.4-6.2-1.1-9.9 1.1l-14.6 8.4c-4.2 2.5-8.3 7-11 12.3l-2.9 5.7a29.6 29.6 0 01-11 12.3l-5.5 3.2 16.2 9 5.5-3.2c4.2-2.5 8.3-7 11-12.3l2.9-5.7c2.7-5.3 6.7-9.9 11-12.3l14.6-8.4c3.8-2.2 7.4-2.5 10.1-1l-.2-.1z" fill="#c73e00" stroke="#0d5068" stroke-miterlimit="10"></path><path d="M178.6 476.4l5.5-3.2c4.2-2.5 8.3-7 11-12.3l2.9-5.7c2.7-5.3 6.7-9.9 11-12.3l14.6-8.4c3.8-2.2 7.4-2.5 10.1-1l-.2-.1-.6-.3 1.4 1 3.1 2.4c2.7 2.2 6.7 2.1 11-.3l5.5-3.2v7.3l-75.3 44.1v-8z" fill="#0d5068" stroke="#0d5068" stroke-miterlimit="10"></path><path d="M178.6 484.3l-16.3-9v-7.9l16.3 9z" fill="rgb(235,80,0)" stroke="#0d5068" stroke-miterlimit="10"></path><path d="M216.2 438.7v23.6" fill="none" stroke="#0d5068" stroke-linejoin="round" stroke-miterlimit="10"></path></g><g><path d="M265 450.3l1.4 1 3.1 2.4c2.7 2.2 6.7 2.1 11-.3l5.5-3.2-16.2-9-5.5 3.2c-4.2 2.5-8.3 2.6-11 .3l-2.9-2.4 14.6 8z" fill="rgb(235,80,0)" stroke="#0d5068" stroke-miterlimit="10"></path><path d="M265.5 450.6l-16.2-9c-2.6-1.4-6.2-1.1-9.9 1.1l-14.6 8.4c-4.2 2.5-8.3 7-11 12.3l-2.9 5.7a29.6 29.6 0 01-11 12.3l-5.5 3.2 16.2 9 5.5-3.2c4.2-2.5 8.3-7 11-12.3l2.9-5.7c2.7-5.3 6.7-9.9 11-12.3l14.6-8.4c3.8-2.2 7.4-2.5 10.1-1l-.2-.1z" fill="#c73e00" stroke="#0d5068" stroke-miterlimit="10"></path><path d="M210.7 493.6l5.5-3.2c4.2-2.5 8.3-7 11-12.3l2.9-5.7c2.7-5.3 6.7-9.9 11-12.3l14.6-8.4c3.8-2.2 7.4-2.5 10.1-1l-.2-.1-.6-.3 1.4 1 3.1 2.4c2.7 2.2 6.7 2.1 11-.3l5.5-3.2v7.3l-75.3 44.1v-8z" fill="#0d5068" stroke="#0d5068" stroke-miterlimit="10"></path><path d="M210.7 501.5l-16.2-9v-7.9l16.2 9z" fill="rgb(235,80,0)" stroke="#0d5068" stroke-miterlimit="10"></path><path d="M248.4 455.9v23.6" fill="none" stroke="#0d5068" stroke-linejoin="round" stroke-miterlimit="10"></path></g><g><path d="M297.1 468l1.4 1 3.1 2.4c2.7 2.2 6.7 2.1 11-.3l5.5-3.2-16.2-9-5.5 3.2c-4.2 2.5-8.3 2.6-11 .3l-2.9-2.4 14.6 8z" fill="rgb(235,80,0)" stroke="#0d5068" stroke-miterlimit="10"></path><path d="M297.7 468.3l-16.2-9c-2.6-1.4-6.2-1.1-9.9 1.1l-14.6 8.4c-4.2 2.5-8.3 7-11 12.3l-2.9 5.7a29.6 29.6 0 01-11 12.3l-5.5 3.2 16.2 9 5.5-3.2c4.2-2.5 8.3-7 11-12.3l2.9-5.7c2.7-5.3 6.7-9.9 11-12.3l14.6-8.4c3.8-2.2 7.4-2.5 10.1-1l-.2-.1z" fill="#c73e00" stroke="#0d5068" stroke-miterlimit="10"></path><path d="M242.9 511.3l5.5-3.2c4.2-2.5 8.3-7 11-12.3l2.9-5.7c2.7-5.3 6.7-9.9 11-12.3l14.6-8.4c3.8-2.2 7.4-2.5 10.1-1l-.2-.1-.6-.3 1.4 1 3.1 2.4c2.7 2.2 6.7 2.1 11-.3l5.5-3.2v7.3l-75.3 44.1v-8z" fill="#0d5068" stroke="#0d5068" stroke-miterlimit="10"></path><path d="M242.9 519.2l-16.3-9v-7.9l16.3 9z" fill="rgb(235,80,0)" stroke="#0d5068" stroke-miterlimit="10"></path><path d="M280.5 473.6v23.6" fill="none" stroke="#0d5068" stroke-linejoin="round" stroke-miterlimit="10"></path></g></g><path d="M71.4 356.4l38-21.9" fill="none" stroke="#0d234c" stroke-linejoin="round" stroke-miterlimit="10"></path><g><path d="M111.4 327.1a32.5 32.5 0 00-15.2 0H84.8v10.4c.2 2.7 2 5.3 5.5 7.4a29.7 29.7 0 0026.9 0c3.5-2 5.4-4.7 5.5-7.4v-10.4h-11.3z" fill="#acc4cb"></path><path d="M111.4 327.1a32.5 32.5 0 00-15.2 0H84.8v10.4c.2 2.7 2 5.3 5.5 7.4a29.7 29.7 0 0026.9 0c3.5-2 5.4-4.7 5.5-7.4v-10.4h-11.3z" fill="none" stroke="#0d5068" stroke-miterlimit="10"></path><ellipse cx="103.8" cy="327.4" fill="#f8f7f8" rx="19" ry="11" stroke="#0d5068" stroke-miterlimit="10"></ellipse><ellipse cx="103.8" cy="327.4" fill="rgb(235,80,0)" rx="5.4" ry="3.1" stroke="#0d5068" stroke-miterlimit="10"></ellipse><path d="M90.6 345v-10l9.4-5.4" fill="none" stroke="#0d5068" stroke-miterlimit="10"></path></g><path d="M350.1 413.1l-15.5 9a12.3 12.3 0 00-5.6 9.6v13.5l10.5 6v-13.6c0-3.5 2.5-7.8 5.5-9.6l15.4-8.9-10.3-6z" fill="#ff5000" stroke="#0d5068" stroke-miterlimit="10"></path><g><path d="M391.8 139.9v20.6c.1 1.2.9 2.4 2.4 3.3 3.3 1.9 8.6 1.9 11.9 0 1.6-.9 2.4-2.1 2.4-3.3v-20.6h-16.7z" fill="#acc4cb"></path><path d="M391.8 139.9v20.6c.1 1.2.9 2.4 2.4 3.3 3.3 1.9 8.6 1.9 11.9 0 1.6-.9 2.4-2.1 2.4-3.3v-20.6h-16.7z" fill="none" stroke="#0d5068" stroke-miterlimit="10"></path><ellipse cx="400.2" cy="139.9" fill="#f8f7f8" rx="8.4" ry="4.9" stroke="#0d5068" stroke-miterlimit="10"></ellipse></g><g><path d="M595 236.3c-3.9-1-8.4-1-12.3 0h-9.2v8.5c.1 2.2 1.6 4.3 4.5 6a24 24 0 0021.8 0c2.9-1.7 4.3-3.8 4.5-6v-8.5H595z" fill="#acc4cb"></path><path d="M595 236.3c-3.9-1-8.4-1-12.3 0h-9.2v8.5c.1 2.2 1.6 4.3 4.5 6a24 24 0 0021.8 0c2.9-1.7 4.3-3.8 4.5-6v-8.5H595z" fill="none" stroke="#0d5068" stroke-miterlimit="10"></path><ellipse cx="588.8" cy="236.6" fill="#f8f7f8" rx="15.4" ry="8.9" stroke="#0d5068" stroke-miterlimit="10"></ellipse><path d="M574.5 186.6l-2.7.6c-1.1.3-2.1.7-3.1 1.2-2.2-4.4-7.1-6.4-12.6-4.7a18 18 0 00-12.2 17.3c.1 2 4.9-1.7 6.7-6 1.5-3.7 1.8-6.6 2.1-9.7 2.2-1.4 4.4-1.9 6.1-2.1 1.2 10.4-3.6 20.5-9.4 23.3-5.1 2.5-10.7 1.2-11.8-3.8-1.7-11.1 6.5-22.5 16.8-25.7a16.3 16.3 0 0120.1 9.6z" fill="#c73e00" stroke="#0d5068" stroke-miterlimit="10"></path><path d="M591.9 196.6l-2.7.6c-1.1.3-2.1.7-3.1 1.2-2.2-4.4-7.1-6.4-12.6-4.7a18 18 0 00-12.2 17.3c.1 2 4.9-1.7 6.7-6 1.5-3.7 1.8-6.6 2.1-9.7 2.2-1.4 4.4-1.9 6.1-2.1 1.2 10.4-3.6 20.5-9.4 23.3-5.1 2.5-10.7 1.2-11.8-3.8-1.7-11.1 6.5-22.5 16.8-25.7a16.4 16.4 0 0120.1 9.6zm-52.2-30.1l-2.7.6c-1.1.3-2.1.7-3.1 1.2-2.2-4.4-7.1-6.4-12.6-4.7a18 18 0 00-12.2 17.3c.1 2 4.9-1.7 6.7-6 1.5-3.7 1.8-6.6 2.1-9.7 2.2-1.4 4.4-1.9 6.1-2.1 1.2 10.4-3.6 20.5-9.4 23.3-5.1 2.5-10.7 1.2-11.8-3.8-1.7-11.1 6.5-22.5 16.8-25.7a16.3 16.3 0 0120.1 9.6z" fill="#c73e00" stroke="#0d5068" stroke-miterlimit="10"></path><path d="M557 176.5l-2.7.6c-1.1.3-2.1.7-3.1 1.2-2.2-4.4-7.1-6.4-12.6-4.7a18 18 0 00-12.2 17.3c.1 2 4.9-1.7 6.7-6 1.5-3.7 1.8-6.6 2.1-9.7 2.2-1.4 4.4-1.9 6.1-2.1 1.2 10.4-3.6 20.5-9.4 23.3-5.1 2.5-10.7 1.2-11.8-3.8-1.7-11.1 6.5-22.5 16.8-25.7a16.4 16.4 0 0120.1 9.6zm-52.3-30.2l-2.7.6c-1.1.3-2.1.7-3.1 1.2-2.2-4.4-7.1-6.4-12.6-4.7a18 18 0 00-12.2 17.3c.1 2 4.9-1.7 6.7-6 1.5-3.7 1.8-6.6 2.1-9.7 2.2-1.4 4.4-1.9 6.1-2.1 1.2 10.4-3.6 20.5-9.4 23.3-5.1 2.5-10.7 1.2-11.8-3.8-1.7-11.1 6.5-22.5 16.8-25.7a16.4 16.4 0 0120.1 9.6z" fill="#c73e00" stroke="#0d5068" stroke-miterlimit="10"></path><path d="M522 156.4l-2.7.6c-1.1.3-2.1.7-3.1 1.2-2.2-4.4-7.1-6.4-12.6-4.7a18 18 0 00-12.2 17.3c.1 2 4.9-1.7 6.7-6 1.5-3.7 1.8-6.6 2.1-9.7 2.2-1.4 4.4-1.9 6.1-2.1 1.2 10.4-3.6 20.5-9.4 23.3-5.1 2.5-10.7 1.2-11.8-3.8-1.7-11.1 6.5-22.5 16.8-25.7a16.3 16.3 0 0120.1 9.6zm-52.2-30.2l-2.7.6c-1.1.3-2.1.7-3.1 1.2-2.2-4.4-7.1-6.4-12.6-4.7a18 18 0 00-12.2 17.3c.1 2 4.9-1.7 6.7-6 1.5-3.7 1.8-6.6 2.1-9.7 2.2-1.4 4.4-1.9 6.1-2.1 1.2 10.4-3.6 20.5-9.4 23.3-5.1 2.5-10.7 1.2-11.8-3.8-1.7-11.1 6.5-22.5 16.8-25.7a16.3 16.3 0 0120.1 9.6z" fill="#c73e00" stroke="#0d5068" stroke-miterlimit="10"></path><path d="M452.3 116.2l-2.7.6c-1.1.3-2.1.7-3.1 1.2-2.2-4.4-7.1-6.4-12.6-4.7a18 18 0 00-12.2 17.3c.1 2 4.9-1.7 6.7-6 1.5-3.7 1.8-6.6 2.1-9.7 2.2-1.4 4.4-1.9 6.1-2.1 1.2 10.4-3.6 20.5-9.4 23.3-5.1 2.5-10.7 1.2-11.8-3.8-1.7-11.1 6.5-22.5 16.8-25.7a16.4 16.4 0 0120.1 9.6zm-39.7-11.5c2.2-1.4 4.4-1.9 6.1-2.1m68.5 33.6l-2.7.6c-1.1.3-2.1.7-3.1 1.2-2.2-4.4-7.1-6.4-12.6-4.7a18 18 0 00-12.2 17.3c.1 2 4.9-1.7 6.7-6 1.5-3.7 1.8-6.6 2.1-9.7 2.2-1.4 4.4-1.9 6.1-2.1 1.2 10.4-3.6 20.5-9.4 23.3-5.1 2.5-10.7 1.2-11.8-3.8-1.7-11.1 6.5-22.5 16.8-25.7a16.4 16.4 0 0120.1 9.6z" fill="#c73e00" stroke="#0d5068" stroke-miterlimit="10"></path><path d="M414.3 96.4a25.3 25.3 0 00-16.9 20.3v22.9c-.1.5.2 1 .9 1.4a5 5 0 004.5 0c.6-.4.9-.8.9-1.3l.3-22.5c1-6.3 5.9-12.2 12.1-14.2 5.5-1.7 10.4.3 12.6 4.7 1-.5 2-.9 3.1-1.2l2.7-.6a16.2 16.2 0 00-20.2-9.5z" fill="#c73e00"></path><path d="M414.3 96.4a25.3 25.3 0 00-16.9 20.3v22.9c-.1.5.2 1 .9 1.4a5 5 0 004.5 0c.6-.4.9-.8.9-1.3l.3-22.5c1-6.3 5.9-12.2 12.1-14.2 5.5-1.7 10.4.3 12.6 4.7 1-.5 2-.9 3.1-1.2l2.7-.6a16.2 16.2 0 00-20.2-9.5z" fill="none" stroke="#0d5068" stroke-miterlimit="10"></path><path d="M589.6 192.8a15 15 0 012.2 3.7c1.8 5.2 1 39.5 1 39.5 0 .5-.3.9-.9 1.3a5 5 0 01-4.5 0c-.6-.4-.9-.8-.9-1.3 0 0 1.2-29.3-.3-36.4l-.5-1.9-1-1.3" fill="#c73e00" stroke="#0d5068" stroke-miterlimit="10"></path></g><g><path d="M647.2 311.3V203.6h-19v108c0 1.4.9 2.8 2.8 3.9 3.7 2.1 9.7 2.1 13.5 0 1.9-1.3 2.8-2.8 2.7-4.2z" fill="#112a4c"></path><path d="M647.2 311.3V203.6h-19v108c0 1.4.9 2.8 2.8 3.9 3.7 2.1 9.7 2.1 13.5 0 1.9-1.3 2.8-2.8 2.7-4.2z" fill="none" stroke="#0d5068" stroke-linecap="round" stroke-linejoin="round" stroke-miterlimit="10"></path><ellipse cx="637.7" cy="203.5" fill="#0d5068" rx="9.5" ry="5.5" stroke="#0d5068" stroke-miterlimit="10"></ellipse><defs><circle cx="637.7" cy="162.1" id="XMLID_32_" r="48.4"></circle></defs><use fill="#f8f7f8" overflow="visible" xlink:href="#XMLID_32_"></use><clipPath id="XMLID_33_"><use overflow="visible" xlink:href="#XMLID_32_"></use></clipPath><g clip-path="url(#XMLID_33_)"><path d="M604.7 169.1a73 73 0 0066 0c9.1-5.3 13.7-12.2 13.7-19.1h.3a48.4 48.4 0 00-94 0h.3c0 7 4.5 13.9 13.7 19.1zm-6.5 20.7a48.5 48.5 0 0078.8.2 138 138 0 01-36.7 5.7 187 187 0 01-42.1-5.9z" fill="none"></path><path d="M684.6 150.1h-.3c0 6.9-4.6 13.8-13.7 19.1a73 73 0 01-66 0c-9.1-5.3-13.7-12.2-13.7-19.1h-.3a48.3 48.3 0 007.5 39.7c10.8 2.7 26.6 5.9 42.1 5.9 14 0 27.6-3.1 36.7-5.7a48.2 48.2 0 007.7-39.9z" fill="#c73e00" stroke="#0d5068" stroke-miterlimit="10"></path></g><use fill="none" overflow="visible" stroke="#0d5068" stroke-miterlimit="10" xlink:href="#XMLID_32_"></use><defs><circle cx="637.7" cy="162.1" id="SVGID_15_" r="48.4"></circle></defs><clipPath><use overflow="visible" xlink:href="#SVGID_15_"></use></clipPath><path d="M686.1 162.1c0 7.2-4.7 14.3-14.2 19.8a75.6 75.6 0 01-68.4 0c-9.5-5.5-14.2-12.6-14.2-19.8v.1a48.4 48.4 0 1096.8-.1z" fill="rgb(235,80,0)" stroke="#0d5068" stroke-miterlimit="10"></path></g><g><path d="M400.9 499.4a70.7 70.7 0 00-34.2 0h-25.5v23.4c.4 6 4.5 11.9 12.4 16.5a66.5 66.5 0 0060.2 0c7.9-4.6 12.1-10.5 12.4-16.5v-23.4h-25.3z" fill="#acc4cb"></path><path d="M400.9 499.4a70.7 70.7 0 00-34.2 0h-25.5v23.4c.4 6 4.5 11.9 12.4 16.5a66.5 66.5 0 0060.2 0c7.9-4.6 12.1-10.5 12.4-16.5v-23.4h-25.3z" fill="none" stroke="#0d5068" stroke-miterlimit="10"></path><ellipse cx="383.8" cy="500.1" fill="#f8f7f8" rx="42.6" ry="24.6" stroke="#0d5068" stroke-miterlimit="10"></ellipse><path d="M396.8 477.1a54.4 54.4 0 00-26 0h-19.5V495c.3 4.6 3.4 9.1 9.5 12.6a51 51 0 0046 0c6-3.5 9.2-8 9.5-12.6v-17.9h-19.5z" fill="#acc4cb"></path><path d="M396.8 477.1a54.4 54.4 0 00-26 0h-19.5V495c.3 4.6 3.4 9.1 9.5 12.6a51 51 0 0046 0c6-3.5 9.2-8 9.5-12.6v-17.9h-19.5z" fill="none" stroke="#0d5068" stroke-miterlimit="10"></path><ellipse cx="383.8" cy="477.6" fill="#f8f7f8" rx="32.5" ry="18.8" stroke="#0d5068" stroke-miterlimit="10"></ellipse><ellipse cx="383.8" cy="477.6" fill="rgb(235,80,0)" rx="13" ry="7.5" stroke="#0d5068" stroke-miterlimit="10"></ellipse><path d="M361.2 507.6v-17l22.6-13m-34.5 58.9v-21.6l11.9-7.1" fill="none" stroke="#0d5068" stroke-miterlimit="10"></path><ellipse cx="383.8" cy="477.6" fill="#acc4cb" rx="3.2" ry="1.9" stroke="#0d5068" stroke-miterlimit="10"></ellipse></g><g><path d="m183 252.4 9.7 5.6" stroke="#0d5068" stroke-miterlimit="10"></path><path d="M178.2 244.8c0-.4-.2-.8-.5-1l-10-5.8a.3.3 0 00-.4 0l10.7-6.2c.1-.1.2-.1.4 0l10.4 6c.3.2.5.6.5 1v10.6c0 .4-.2.8-.5 1l-10.8 6.2.2-11.8z" fill="#f8f7f8" stroke="#0d5068" stroke-linejoin="round" stroke-miterlimit="10"></path><path d="M177.6 256.6l-10.1-5.8c-.3-.2-.5-.6-.5-1v-11.4c0-.4.2-.6.5-.4l10.1 5.8c.3.2.5.6.5 1v11.4c.1.4-.2.6-.5.4z" fill="#acc4cb" stroke="#0d5068" stroke-linejoin="round" stroke-miterlimit="10"></path><path d="M184.1 253.1v-4.5" fill="none" stroke="#0d5068" stroke-linejoin="round" stroke-miterlimit="10"></path><ellipse cx="184.5" cy="246.9" fill="#c73e00" rx="2.7" ry="1.5" stroke="#0d5068" stroke-miterlimit="10" transform="rotate(-60 184.5 246.9)"></ellipse></g><g><path d="m271.7 200.5 9.7 5.6" stroke="#0d5068" stroke-miterlimit="10"></path><path d="M266.9 192.8c0-.4-.2-.8-.5-1l-10-5.8a.3.3 0 00-.4 0l10.7-6.2c.1-.1.2-.1.4 0l10.4 6c.3.2.5.6.5 1v10.6c0 .4-.2.8-.5 1l-10.8 6.2.2-11.8z" fill="#f8f7f8" stroke="#0d5068" stroke-linejoin="round" stroke-miterlimit="10"></path><path d="M266.4 204.7l-10.1-5.8c-.3-.2-.5-.6-.5-1v-11.4c0-.4.2-.6.5-.4l10.1 5.8c.3.2.5.6.5 1v11.4c0 .4-.3.5-.5.4z" fill="#acc4cb" stroke="#0d5068" stroke-linejoin="round" stroke-miterlimit="10"></path><path d="M272.9 201.1v-4.5" fill="none" stroke="#0d5068" stroke-linejoin="round" stroke-miterlimit="10"></path><ellipse cx="273.3" cy="194.9" fill="#c73e00" rx="2.7" ry="1.5" stroke="#0d5068" stroke-miterlimit="10" transform="rotate(-60 273.3 195)"></ellipse></g><ellipse cx="359.5" cy="140.4" fill="none" rx="11.9" ry="6.9" stroke="#0d234c" stroke-linejoin="round" stroke-miterlimit="10"></ellipse><g><path d="M585.3 425.1c0-2 1.2-4.4 2.8-5.3l69.8-41c.8-.5 1.5-.6 2-.2l-28.6-16.4c-.5-.4-1.3-.5-2.1 0l-71.7 42.1c-1.6.9-2.9 3.4-2.9 5.5v15.7c0 2 1.2 4.4 2.8 5.3l28.9 16.6-1-22.3z" fill="#f8f7f8" stroke="#0d5068" stroke-miterlimit="10"></path><path d="M588.1 447.4l69.9-41a6.8 6.8 0 002.8-5.3v-20.2c0-2-1.2-3-2.8-2.1l-69.9 41a6.8 6.8 0 00-2.8 5.3v20.2c0 2 1.2 3 2.8 2.1z" fill="#acc4cb" stroke="#0d5068" stroke-miterlimit="10"></path><ellipse cx="554.7" cy="451.6" fill="rgb(235,80,0)" rx="7.9" ry="4.5" stroke="#0d5068" stroke-miterlimit="10"></ellipse><ellipse cx="569.7" cy="426.2" fill="#112a4c" rx="4.5" ry="7.9" stroke="#0d5068" stroke-linecap="round" stroke-linejoin="round" stroke-miterlimit="10" transform="rotate(-30 569.7 426.2)"></ellipse><path d="M572 428.5c0-1.8-1.3-4-2.8-4.9-.7-.4-1.4-.5-1.9-.2l-.1.1-5.5 3.2a23.4 23.4 0 00-10.8 18.7v4.6h.1c-.2.7.2 1.4 1.1 2 1.6.9 4.1.9 5.7 0 .9-.5 1.3-1.3 1.1-2v-4.6c0-4.2 3.2-9.7 6.8-11.8l5.4-3.1c.5-.4.9-1 .9-2z" fill="#ff5000"></path><path d="M572 428.5c0-1.8-1.3-4-2.8-4.9-.7-.4-1.4-.5-1.9-.2l-.1.1-5.5 3.2a23.4 23.4 0 00-10.8 18.7v4.6h.1c-.2.7.2 1.4 1.1 2 1.6.9 4.1.9 5.7 0 .9-.5 1.3-1.3 1.1-2v-4.6c0-4.2 3.2-9.7 6.8-11.8l5.4-3.1c.5-.4.9-1 .9-2z" fill="none" stroke="#0d5068" stroke-miterlimit="10"></path><path d="M559.3 407.6l21.6 12.4" fill="#acc4cb" stroke="#0d5068" stroke-miterlimit="10"></path><path d="M623.8 365.3L653 382v27.2l-9.9 5.7v-27.5l-28.8-16.5z" fill="rgb(235,80,0)" stroke="#0d5068" stroke-miterlimit="10"></path><path d="M624.8 381.9l-20.5-4.9v6.7c-.1.8.4 1.5 1.3 2.1l9.7 5.6c1.9 1.1 5.3 1 7.6-.3 1.2-.7 1.9-1.6 1.9-2.5v-6.7z" fill="#0d5068" stroke="#0d5068" stroke-linecap="round" stroke-linejoin="round" stroke-miterlimit="10"></path><path d="M606.1 374.4a8.5 8.5 0 017.6-.3l9.7 5.6c1.9 1.1 1.7 3.1-.5 4.4a8.5 8.5 0 01-7.6.3l-9.7-5.6c-1.9-1.1-1.7-3.1.5-4.4z" fill="#ff5000" stroke="#0d5068" stroke-miterlimit="10"></path><path d="M611.8 389.6l-20.5-4.9v6.7c-.1.8.4 1.5 1.3 2.1l9.7 5.6c1.9 1.1 5.3 1 7.6-.3 1.2-.7 1.9-1.6 1.9-2.5v-6.7z" fill="#0d5068" stroke="#0d5068" stroke-linecap="round" stroke-linejoin="round" stroke-miterlimit="10"></path><path d="M593.2 382.2a8.5 8.5 0 017.6-.3l9.7 5.6c1.9 1.1 1.7 3.1-.5 4.4a8.5 8.5 0 01-7.6.3l-9.7-5.6c-2-1.2-1.7-3.1.5-4.4z" fill="#ff5000" stroke="#0d5068" stroke-miterlimit="10"></path><g><path d="M598 397.4l-20.5-4.9v6.7c-.1.8.4 1.5 1.3 2.1l9.7 5.6c1.9 1.1 5.3 1 7.6-.3 1.2-.7 1.9-1.6 1.9-2.5v-6.7z" fill="#0d5068" stroke="#0d5068" stroke-linecap="round" stroke-linejoin="round" stroke-miterlimit="10"></path><path d="M579.4 390a8.5 8.5 0 017.6-.3l9.7 5.6c1.9 1.1 1.7 3.1-.5 4.4a8.5 8.5 0 01-7.6.3l-9.7-5.6c-2-1.2-1.8-3.1.5-4.4z" fill="#ff5000" stroke="#0d5068" stroke-miterlimit="10"></path></g><path d="M643.1 387.4l9.9-5.4v27.2l-9.9 5.7z" fill="#c73e00" stroke="#0d5068" stroke-miterlimit="10"></path></g><ellipse cx="359.5" cy="140.4" fill="#0d234c" rx="3.7" ry="2.1"></ellipse><g><path d="M491.9 481.8c0-2 1.2-4.4 2.8-5.3l69.8-41c.8-.5 1.5-.6 2-.2L537.8 419c-.5-.4-1.3-.5-2.1 0L464 461.1c-1.6.9-2.9 3.4-2.9 5.5v15.7c0 2 1.2 4.4 2.8 5.3l28.9 16.6-.9-22.4z" fill="#f8f7f8" stroke="#0d5068" stroke-miterlimit="10"></path><path d="M494.7 504.1l69.9-41a6.8 6.8 0 002.8-5.3v-20.2c0-2-1.2-3-2.8-2.1l-69.9 41a6.8 6.8 0 00-2.8 5.3V502c0 2 1.3 3 2.8 2.1z" fill="#acc4cb" stroke="#0d5068" stroke-miterlimit="10"></path><ellipse cx="461.4" cy="508.3" fill="#112a4c" rx="7.9" ry="4.5" stroke="#0d5068" stroke-linecap="round" stroke-linejoin="round" stroke-miterlimit="10"></ellipse><ellipse cx="476.4" cy="482.9" fill="#112a4c" rx="4.5" ry="7.9" stroke="#0d5068" stroke-linecap="round" stroke-linejoin="round" stroke-miterlimit="10" transform="rotate(-30 476.3 482.9)"></ellipse><path d="M478.6 485.2c0-1.8-1.3-4-2.8-4.9-.7-.4-1.4-.5-1.9-.2l-.1.1-5.5 3.2a23.4 23.4 0 00-10.8 18.7v4.6h.1c-.2.7.2 1.4 1.1 2 1.6.9 4.1.9 5.7 0 .9-.5 1.3-1.3 1.1-2V502c0-4.2 3.2-9.7 6.8-11.8l5.4-3.1c.6-.3.9-.9.9-1.9z" fill="#f8f7f8"></path><path d="M478.6 485.2c0-1.8-1.3-4-2.8-4.9-.7-.4-1.4-.5-1.9-.2l-.1.1-5.5 3.2a23.4 23.4 0 00-10.8 18.7v4.6h.1c-.2.7.2 1.4 1.1 2 1.6.9 4.1.9 5.7 0 .9-.5 1.3-1.3 1.1-2V502c0-4.2 3.2-9.7 6.8-11.8l5.4-3.1c.6-.3.9-.9.9-1.9z" fill="none" stroke="#0d5068" stroke-miterlimit="10"></path><path d="M466 464.4l21.5 12.3" fill="#acc4cb" stroke="#0d5068" stroke-miterlimit="10"></path><path d="M530.5 422.1l29.2 16.7v27.1l-10 5.7v-27.5l-28.8-16.4z" fill="rgb(235,80,0)" stroke="#0d5068" stroke-miterlimit="10"></path><path d="M531.4 438.6l-20.5-4.9v6.7c-.1.8.4 1.5 1.3 2.1l9.7 5.6c1.9 1.1 5.3 1 7.6-.3 1.2-.7 1.9-1.6 1.9-2.5v-6.7z" fill="#0d5068" stroke="#0d5068" stroke-linecap="round" stroke-linejoin="round" stroke-miterlimit="10"></path><path d="M512.8 431.1a8.5 8.5 0 017.6-.3l9.7 5.6c1.9 1.1 1.7 3.1-.5 4.4a8.5 8.5 0 01-7.6.3l-9.7-5.6c-2-1.1-1.8-3.1.5-4.4z" fill="#ff5000" stroke="#0d5068" stroke-miterlimit="10"></path><path d="M518.5 446.3l-20.5-4.9v6.7c-.1.8.4 1.5 1.3 2.1l9.7 5.6c1.9 1.1 5.3 1 7.6-.3 1.2-.7 1.9-1.6 1.9-2.5v-6.7z" fill="#0d5068" stroke="#0d5068" stroke-linecap="round" stroke-linejoin="round" stroke-miterlimit="10"></path><path d="M499.8 438.9a8.5 8.5 0 017.6-.3l9.7 5.6c1.9 1.1 1.7 3.1-.5 4.4a8.5 8.5 0 01-7.6.3l-9.7-5.6c-1.9-1.1-1.7-3.1.5-4.4z" fill="#ff5000" stroke="#0d5068" stroke-miterlimit="10"></path><g><path d="M504.7 454.1l-20.5-4.9v6.7c-.1.8.4 1.5 1.3 2.1l9.7 5.6c1.9 1.1 5.3 1 7.6-.3 1.2-.7 1.9-1.6 1.9-2.5v-6.7z" fill="#0d5068" stroke="#0d5068" stroke-linecap="round" stroke-linejoin="round" stroke-miterlimit="10"></path><path d="M486 446.7a8.5 8.5 0 017.6-.3l9.7 5.6c1.9 1.1 1.7 3.1-.5 4.4a8.5 8.5 0 01-7.6.3l-9.7-5.6c-2-1.2-1.7-3.1.5-4.4z" fill="#ff5000" stroke="#0d5068" stroke-miterlimit="10"></path></g><path d="M549.7 444.1l10-5.3v27.1l-10 5.7z" fill="#c73e00" stroke="#0d5068" stroke-miterlimit="10"></path></g><g><ellipse cx="297.1" cy="510.3" fill="rgb(235,80,0)" rx="7.9" ry="4.5" stroke="#0d5068" stroke-miterlimit="10"></ellipse><ellipse cx="282.1" cy="484.9" fill="rgb(235,80,0)" rx="7.9" ry="4.5" stroke="#0d5068" stroke-miterlimit="10" transform="rotate(-60 282.1 484.9)"></ellipse><path d="M301 508.6l.1-4.6c0-7-4.7-15.2-10.8-18.7l-5.5-3.2-.1-.1c-.5-.2-1.2-.2-1.9.2a6.1 6.1 0 00-2.8 4.9c0 1 .4 1.6 1 1.9l5.4 3.1c3.6 2.1 6.8 7.6 6.8 11.8v4.6c-.2.7.2 1.4 1.1 2 1.6.9 4.1.9 5.7 0 .8-.4 1.2-1.2 1-1.9z" fill="#f8f7f8"></path><path d="M301 508.6l.1-4.6c0-7-4.7-15.2-10.8-18.7l-5.5-3.2-.1-.1c-.5-.2-1.2-.2-1.9.2a6.1 6.1 0 00-2.8 4.9c0 1 .4 1.6 1 1.9l5.4 3.1c3.6 2.1 6.8 7.6 6.8 11.8v4.6c-.2.7.2 1.4 1.1 2 1.6.9 4.1.9 5.7 0 .8-.4 1.2-1.2 1-1.9z" fill="none" stroke="#0d5068" stroke-miterlimit="10"></path></g><g><path d="M331 273.3l24.5 54.6c2.5 5.7 15.1 7.5 22.5 3.3l73.3-41.5c7.4-4.2 3.9-11.2-6.2-12.5l-97.8-13.1c-9.7-1.3-18.8 3.8-16.3 9.2z" fill="#0d5068" opacity="0.5"></path><path d="M463.2 242.1v-13.8h-12.9v5.8l-107.2-14.4c-2-.3-4-.3-5.9-.1v-5h-12.7v13.7c0 .5.2 1.1.4 1.7l27.2 60.8c2.8 6.3 16.8 8.4 25.1 3.7l81.6-46.2c3.2-1.9 4.5-4.1 4.4-6.2z" fill="#acc4cb" stroke="#0d5068" stroke-miterlimit="10"></path><path d="M325 215.8l27.2 60.8c2.8 6.3 16.8 8.4 25.1 3.7l81.6-46.2c8.3-4.7 4.4-12.4-6.9-13.9l-108.8-14.6c-10.8-1.5-20.9 4.2-18.2 10.2z" fill="#f8f7f8" stroke="#0d5068" stroke-miterlimit="10"></path><path d="M395.7 240.8l-7.1 4c-1.1.6-2.8.7-4 .1l-37.8-17.2c-5.7-2.6-5.9-7.4-.6-10.4a20 20 0 0118.6.2l31.1 20.9c.9.8.8 1.7-.2 2.4zm14.4 12.2l.6-.3c3.6-2 3.6-5.3 0-7.3l-.6-.3c-3.6-2-9.4-1.9-13 .1l-.6.3c-3.6 2-3.6 5.3-.1 7.3l.6.3c3.6 2 9.5 2 13.1-.1z" fill="#0d5068" stroke="#0d5068" stroke-miterlimit="10"></path></g></svg>
